<?xml version="1.0" encoding="utf-8"?>
<!-- Generator: Adobe Illustrator 24.2.1, SVG Export Plug-In . SVG Version: 6.00 Build 0)  -->
<svg version="1.1" id="Layer_1" xmlns="http://www.w3.org/2000/svg" xmlns:xlink="http://www.w3.org/1999/xlink" x="0px" y="0px"
	 viewBox="0 0 445.3 95.4" style="enable-background:new 0 0 445.3 95.4;" xml:space="preserve">
<style type="text/css">
	.st0{clip-path:url(#SVGID_2_);}
	.st1{fill:#211D1D;}
	.st2{clip-path:url(#SVGID_4_);}
</style>
<g>
	<defs>
		<rect id="SVGID_1_" x="223" y="17.8" width="206.6" height="65"/>
	</defs>
	<clipPath id="SVGID_2_">
		<use xlink:href="#SVGID_1_"  style="overflow:visible;"/>
	</clipPath>
	<g class="st0">
		<path class="st1" d="M302.9,74.2C302.9,74.2,303,74.2,302.9,74.2C303,74.2,302.9,74.2,302.9,74.2z M262.7,65.1
			C262.7,65.1,262.8,65.1,262.7,65.1C262.8,65.1,262.7,65.1,262.7,65.1z M425.5,62.7C425.5,62.7,425.5,62.7,425.5,62.7
			C425.5,62.7,425.5,62.7,425.5,62.7z M392.4,61.9c-0.1,0.1-0.1,0.2-0.2,0.2C392.3,62,392.4,61.9,392.4,61.9z M311,54.7
			c-0.1,0.1-0.2,0.2-0.4,0.2C310.8,54.8,310.9,54.8,311,54.7z M317.5,47.6c0,0.1-0.1,0.2-0.1,0.2C317.5,47.7,317.5,47.7,317.5,47.6z
			 M240.8,37.4C240.8,37.4,240.8,37.4,240.8,37.4C240.8,37.4,240.8,37.4,240.8,37.4z M286.6,22.8c0,0-0.1,0-0.1,0.1
			C286.5,22.9,286.5,22.8,286.6,22.8z M299.8,21.1C299.8,21.1,299.9,21.1,299.8,21.1C299.9,21.1,299.8,21.1,299.8,21.1z M299.7,21.1
			C299.7,21.1,299.7,21.1,299.7,21.1C299.7,21.1,299.7,21.1,299.7,21.1z M291.2,21.5c1.5-0.3,3.1-0.5,4.7-0.6c1.3,0,2.6,0.1,3.9,0.2
			c0.8,0.1,1.7,0.2,2.5,0.4c1.9,0.3,3.8,1,5.4,1.9c1.2,0.7,2.3,1.5,3.3,2.3c0.6,0.5,1.2,0.9,1.7,1.5c1.2,1.1,2.2,2.2,3,3.5
			c1.6,2.4,2.3,5.2,2.7,8c0,0,0,0,0,0c0.1,1.5,0.1,3,0,4.5c-0.1,1.6-0.4,3.3-1.1,4.8c-0.4,0.8-0.8,1.6-1.2,2.4
			c-0.2,0.3-0.4,0.5-0.5,0.7c-0.1,0.1-0.1,0.2-0.2,0.2c-0.1,0.1-0.2,0.2-0.3,0.3c-0.2,0.2-0.5,0.4-0.7,0.6c-1.2,1-2.5,1.9-3.7,2.8
			c-1.1,0.7-2.2,1.4-3.3,2.1c-0.7,0.4-1.3,0.8-2.1,1.1c-0.7,0.3-1.4,0.7-2.1,1c-1.1,0.5-2.2,0.9-3.3,1.4c-1.3,0.5-2.6,0.9-3.9,1.3
			c-2.3,0.7-4.7,1.3-7,1.9c-2.5,0.6-4.9,1-7.5,1.4c-0.6-0.6-1.3-1.2-1.9-1.7c-0.9-0.8-1.7-1.8-2.5-2.7c-1.1-1.3-2-2.7-2.7-4.1
			c-0.6-1.1-1.1-2.3-1.6-3.5c-0.8-1.9-1.5-3.9-1.8-6c-0.2-1.6-0.3-3.2-0.2-4.8c0-0.8,0.1-1.7,0.2-2.5c0.2-1.3,0.4-2.5,0.8-3.7
			c0.4-0.9,0.9-1.7,1.4-2.6c0.5-0.7,1-1.4,1.5-2.1c0.4-0.5,0.9-1,1.3-1.5c0.3-0.3,0.7-0.7,1-1c0,0,0,0,0,0c1.4-1.1,2.9-2.2,4.3-3.3
			c1.5-1,3.1-1.9,4.8-2.7C287.9,22.3,289.5,21.8,291.2,21.5z M296.7,17.9c-0.9,0.1-1.9,0.3-2.8,0.5c-1.2,0.2-2.3,0.5-3.5,0.9
			c-1.2,0.4-2.4,0.9-3.5,1.5c-1.1,0.6-2.3,1.3-3.3,2c-1.1,0.7-2.1,1.4-3.1,2.2c-1.2,0.9-2.5,1.9-3.6,2.9c-2,1.9-3.9,4.1-5.5,6.4
			c-0.7,1-1.4,2.1-1.9,3.2c-0.2,0.4-0.4,0.8-0.6,1.2c-0.3,0.8-0.5,1.5-0.7,2.3c-0.1,0.6-0.2,1.3-0.3,2c-0.3,2.3-0.2,4.7,0.1,7
			c0.3,2.4,1.3,4.7,2.3,6.9c0.8,1.8,1.8,3.6,2.9,5.2c0.7,0.9,1.4,1.9,2.2,2.7c0.3,0.3,0.5,0.5,0.8,0.8c-0.7,0-1.3,0.1-2,0.1
			c-1.9,0-3.7,0.1-5.6-0.1c-1.9-0.1-3.8-0.3-5.7-0.5c-1.2-0.2-2.5-0.3-3.7-0.6c-1.2-0.2-2.4-0.5-3.6-0.8c-1.2-0.3-2.3-0.6-3.5-1
			c-1.2-0.4-2.3-0.8-3.5-1.3c-1.2-0.5-2.4-1.1-3.5-1.7c-1-0.6-2.1-1.2-3.1-1.9c-2-1.5-4-3.1-5.8-4.9c-2-2.1-4.2-4.1-5.5-6.7
			c-0.7-1.4-1.3-2.8-1.8-4.3c-0.5-1.4-0.8-2.8-1-4.3c-0.2-1.7,0-3.4,0.1-5.1c0.2-1.7,0.6-3.3,1.3-4.8c0.1-0.3,0.3-0.5,0.4-0.8
			c0,0,0,0,0-0.1c0.2-0.2,0.4-0.3,0.5-0.5c0.4-0.3,0.8-0.6,1.2-0.9c0.4-0.2,0.8-0.5,1.2-0.7c0.6-0.2,1.1-0.4,1.7-0.5
			c0.7-0.1,1.4-0.1,2-0.1c1,0.1,1.9,0.3,2.9,0.6c0.9,0.3,1.8,0.9,2.6,1.4c1.1,0.7,2.1,1.5,2.8,2.6c0.7,1,1.2,2.1,1.4,3.3
			c0.1,1.3-0.2,2.5-0.6,3.7c0,0.1-0.1,0.1-0.1,0.2c-0.3,0.2-0.7,0.4-1.1,0.6c-1.2,0.5-2.5,0.7-3.7,0.6c-0.5-0.1-0.9-0.2-1.3-0.3
			c-0.7-0.2-1.3-0.6-1.9-1.1c-0.7-0.6-1.3-1.5-1.5-2.5c0.2-0.1,0.5-0.1,0.7-0.2c0.3-0.1,0.6-0.3,0.8-0.5c0.6-0.4,1.2-1,1.6-1.6
			c0.3-0.3,0.5-0.6,0.7-1c0.1-0.1,0.4-0.7-0.1-0.6c-0.6,0.1-1.1,0.3-1.7,0.5c-1,0.4-1.8,0.9-2.7,1.5c-1,0.9-2,1.9-2.6,3.1
			c-0.5,1-0.5,2.1,0,3.1c0.6,1.2,1.7,2.2,3,2.7c0.6,0.2,1.2,0.3,1.8,0.3c0.8,0.1,1.5,0,2.3-0.2c1.5-0.3,2.8-1,4-1.9
			c1.8-1.3,3.4-2.8,4.5-4.7c0.6-1,1-2.3,1.2-3.5c0.1-0.5,0.1-1.1,0.1-1.7c0-0.5-0.1-0.9-0.2-1.3c-0.1-0.4-0.3-0.8-0.5-1.2
			c-0.6-1.3-1.6-2.2-2.7-3.1c-0.9-0.7-1.9-1.3-2.9-1.8c-1-0.5-2-0.7-3-0.9c-1.2-0.2-2.4-0.1-3.6,0.2c-1.2,0.3-2.3,1-3.4,1.8
			c-1.2,0.8-2.3,1.7-3.3,2.6c-1.4,1.3-2.8,2.7-3.8,4.3c-1.3,2-1.8,4.5-2.1,6.9c-0.2,2.2-0.2,4.5,0.3,6.7c0.6,2.4,1.5,4.7,2.7,6.8
			c1.1,2,2.7,3.7,4.4,5.3c1.8,1.8,3.6,3.5,5.7,5c1,0.7,2,1.4,3,2.1c1.1,0.7,2.3,1.3,3.5,1.8c1.1,0.5,2.2,1,3.3,1.4
			c1.1,0.4,2.3,0.8,3.5,1.1c2.4,0.6,4.8,1.2,7.3,1.5c2.6,0.3,5.1,0.5,7.7,0.6c1.2,0.1,2.4,0.1,3.6,0.1c1.2,0,2.4,0,3.6-0.1
			c2-0.1,4.1-0.3,6.1-0.6c0.8,0.7,1.6,1.3,2.4,1.8c1,0.7,2,1.3,3.1,1.9c1,0.6,2,1.1,3,1.6c0.6,0.3,1.2,0.5,1.8,0.8
			c0.6,0.3,1.3,0.5,2,0.8c1,0.4,2.2,0.7,3.2,1c1.2,0.3,2.4,0.6,3.6,0.8c1.3,0.2,2.7,0.3,4.1,0.5c2.5,0.3,4.9,0.4,7.4,0.3
			c1.7,0,3.4-0.1,5-0.4c1.9-0.3,3.8-0.7,5.6-1.1c3.5-0.8,6.9-1.9,10.2-3.4c-0.1,0-0.2,0.1-0.3,0.1c1.3-0.6,2.5-1.1,3.8-1.7
			c1.1-0.5,2.1-1.1,3.1-1.6c2.2-1.2,4.4-2.4,6.6-3.6c4.4-2.5,8.7-5.3,13.1-7.8c1.7-1,3.4-1.9,5.1-2.8c1.6-0.8,3.2-1.6,4.9-2.3
			c2.1-1,4.3-1.9,6.4-2.8c2.3-1,4.6-1.9,6.9-2.7c2.3-0.8,4.7-1.5,7.1-1.9c2.4-0.4,4.8-0.7,7.3-0.9c3.6-0.3,7.3-0.4,11-0.1
			c-0.1,0-0.1,0-0.2,0c1.1,0.2,2.3,0.4,3.4,0.7c1.1,0.3,2.2,0.5,3.3,0.9c1.2,0.4,2.3,0.7,3.4,1.3c1,0.5,2,1.3,2.9,2
			c1.9,1.6,3.6,3.5,5,5.6c0.6,0.9,1,1.9,1.4,2.9c0.4,1.1,0.7,2.3,0.9,3.4c0.1,0.5,0.1,1,0.2,1.5c0.1,1.4,0.2,2.8-0.1,4.2
			c-0.2,1.3-0.6,2.4-1.1,3.6c-0.4,0.7-0.8,1.4-1.2,2.1c-0.4,0.6-0.9,1.2-1.3,1.8c-0.2,0.3-0.5,0.6-0.7,0.9c-0.2,0.3-0.5,0.5-0.7,0.7
			c-0.2,0.1-0.3,0.3-0.5,0.4c-0.5,0.4-0.9,0.7-1.4,1.1c-0.3,0.2-0.6,0.4-1,0.6c-0.8,0.3-1.7,0.5-2.5,0.7c-0.7,0.1-1.4,0.3-2.1,0.4
			c-1.7,0.2-3.4,0.4-5.1,0.2c-1.6-0.2-3.1-0.4-4.6-0.8c-1.5-0.4-3-0.8-4.5-1.4c-0.7-0.3-1.5-0.6-2.1-1c-0.7-0.4-1.4-0.7-2.1-1.2
			c-0.3-0.2-0.6-0.5-0.9-0.7c-0.7-0.6-1.2-1.3-1.6-2.1c-0.7-1.3-1-2.9-1.2-4.3c-0.1-1.4,0.2-2.8,0.8-4.1c0.3-0.7,0.7-1.4,1.1-2.1
			c0-0.1,0.1-0.1,0.1-0.2c0.2-0.2,0.3-0.4,0.5-0.5c0.1-0.1,0.1-0.1,0.2-0.2c0.2-0.1,0.3-0.2,0.5-0.3c0.5-0.2,1-0.3,1.6-0.3
			c0.4,0.1,0.7,0.1,1,0.3c0,0.1,0.1,0.2,0.1,0.3c0,0,0.3,0.1,0.3,0.2c0.3,0.2,0.6,0.4,1,0.5c0.2,0.1,0.4,0,0.6-0.1
			c0.6-0.3,1.1-0.8,1.6-1.3c0.4-0.4,0.7-0.7,1-1.1c0,0,0.7-0.9,0.4-1c-0.3-0.1-0.5-0.3-0.7-0.5c-0.1-0.1-0.3-0.2-0.4-0.2
			c-0.2-0.1-0.4-0.1-0.6-0.1c-0.5-0.2-1-0.3-1.6-0.3c-0.5,0-0.9,0.2-1.4,0.4c-1.1,0.4-2,1.2-2.9,1.9c-1.8,1.6-3.4,3.4-4.5,5.4
			c-0.5,0.8-0.9,1.7-1.3,2.6c-0.3,0.7-0.4,1.4-0.5,2.2c-0.1,0.8,0,1.6,0.1,2.4c0.2,0.9,0.4,1.8,0.7,2.7c0.4,1.3,1.2,2.3,2.3,3.1
			c0.9,0.7,1.9,1.3,2.9,1.8c1.1,0.5,2.3,1.1,3.5,1.5c2.3,0.8,4.7,1.4,7.1,1.7c0.9,0.1,1.8,0.2,2.7,0.2c0.6,0,1.1,0,1.7-0.1
			c1.2-0.1,2.5-0.2,3.7-0.5c0.7-0.1,1.4-0.3,2-0.5c0.8-0.2,1.6-0.7,2.3-1.2c1.2-0.8,2.3-1.8,3.5-2.7c2.2-1.9,4.2-4.2,5.8-6.6
			c1.5-2.1,2.5-4.5,3-7c0.3-1.5,0.2-2.9,0.1-4.3c-0.1-1.2-0.3-2.5-0.7-3.7c-0.3-1.1-0.6-2.1-1.1-3.1c-0.5-1.1-1.2-2.1-1.9-3
			c-1.5-2-3.4-3.6-5.4-5c-2-1.3-4.3-1.9-6.6-2.5c-1.2-0.3-2.4-0.5-3.5-0.8c-1.1-0.2-2.3-0.3-3.4-0.3c-2.5-0.1-4.9,0-7.4,0.1
			c-2.5,0.2-5,0.5-7.5,0.8c-2.4,0.3-4.8,1-7.2,1.7c-2.3,0.7-4.5,1.5-6.7,2.4c-2.3,1-4.5,1.9-6.8,2.9c-2.3,1-4.7,2.1-7,3.3
			c-2.3,1.2-4.5,2.4-6.7,3.8c-3.7,2.3-7.5,4.6-11.3,6.8c-1.8,1-3.5,2-5.3,2.9c-1,0.6-2.1,1.1-3.1,1.7c-0.9,0.5-1.9,1-2.8,1.4
			c-2.2,1-4.3,1.9-6.6,2.6c-2.4,0.8-4.8,1.4-7.2,1.9c-1.3,0.3-2.6,0.5-3.9,0.7c-1.3,0.2-2.6,0.3-3.9,0.3c-2.5,0.1-5.1-0.1-7.6-0.3
			c-0.8-0.1-1.5-0.2-2.3-0.2c-2.4-0.3-4.7-0.7-7-1.4c-0.6-0.2-1.3-0.4-1.9-0.6c-0.7-0.2-1.3-0.5-2-0.8c-1.1-0.4-2.1-1-3.2-1.5
			c-1-0.5-2.1-1.1-3-1.7c-0.5-0.4-1.1-0.7-1.6-1.1c1.1-0.2,2.3-0.5,3.4-0.8c2.6-0.7,5.1-1.4,7.7-2.3c2.4-0.8,4.8-1.8,7.1-2.9
			c2.3-1.1,4.4-2.4,6.5-3.8c2.5-1.7,5-3.5,7.1-5.7c1.3-1.3,2.4-2.7,3.3-4.2c0.5-0.9,1-1.9,1.4-2.8c0.6-1.5,0.9-3.1,1-4.7
			c0.1-1.9,0.1-3.8-0.2-5.7c-0.1-0.7-0.3-1.3-0.4-1.9c-0.4-1.7-1.1-3.2-2-4.7c-1.8-2.9-4.6-5.1-7.4-7c-0.6-0.4-1.3-0.8-2-1.1
			c-1.5-0.7-3.2-1.1-4.8-1.4c-1.3-0.2-2.7-0.3-4.1-0.4c-0.5,0-0.9,0-1.4,0C298.6,17.7,297.6,17.8,296.7,17.9"/>
	</g>
</g>
<g>
	<defs>
		<rect id="SVGID_3_" x="19.6" y="17.8" width="206.1" height="65"/>
	</defs>
	<clipPath id="SVGID_4_">
		<use xlink:href="#SVGID_3_"  style="overflow:visible;"/>
	</clipPath>
	<g class="st2">
		<path class="st1" d="M146.2,74.2C146.2,74.2,146.2,74.2,146.2,74.2C146.2,74.2,146.2,74.2,146.2,74.2z M186.4,65.1
			C186.4,65.1,186.4,65.1,186.4,65.1C186.4,65.1,186.4,65.1,186.4,65.1z M23.7,62.7C23.7,62.7,23.7,62.7,23.7,62.7
			C23.7,62.7,23.7,62.7,23.7,62.7z M56.7,61.9c0.1,0.1,0.1,0.2,0.2,0.2C56.8,62,56.8,61.9,56.7,61.9z M138.1,54.7
			c0.1,0.1,0.3,0.2,0.4,0.2C138.3,54.8,138.2,54.8,138.1,54.7z M131.6,47.6c0,0.1,0.1,0.2,0.1,0.2C131.7,47.7,131.6,47.7,131.6,47.6
			z M208.4,37.4C208.3,37.4,208.3,37.4,208.4,37.4C208.3,37.4,208.3,37.4,208.4,37.4z M162.6,22.8c0,0,0.1,0,0.1,0.1
			C162.7,22.9,162.6,22.8,162.6,22.8z M149.3,21.1C149.3,21.1,149.3,21.1,149.3,21.1C149.3,21.1,149.3,21.1,149.3,21.1z M149.4,21.1
			C149.4,21.1,149.4,21.1,149.4,21.1C149.4,21.1,149.4,21.1,149.4,21.1z M158,21.5c1.7,0.3,3.3,0.8,4.9,1.4c1.7,0.8,3.2,1.7,4.8,2.7
			c1.5,1,2.9,2.1,4.3,3.3c0,0,0,0,0,0c0.3,0.3,0.7,0.7,1,1c0.4,0.5,0.9,1,1.3,1.5c0.5,0.7,1,1.4,1.5,2.1c0.5,0.8,1,1.7,1.4,2.6
			c0.5,1.2,0.7,2.4,0.8,3.7c0.1,0.8,0.2,1.7,0.2,2.5c0.1,1.6,0,3.2-0.2,4.8c-0.3,2.1-1,4-1.8,6c-0.5,1.2-1,2.3-1.6,3.5
			c-0.8,1.4-1.7,2.9-2.7,4.1c-0.8,0.9-1.6,1.9-2.5,2.7c-0.6,0.6-1.2,1.2-1.9,1.7c-2.5-0.3-5-0.8-7.5-1.4c-2.3-0.5-4.7-1.1-7-1.9
			c-1.3-0.4-2.6-0.8-3.9-1.3c-1.1-0.4-2.2-0.9-3.3-1.4c-0.7-0.3-1.4-0.7-2.1-1c-0.7-0.3-1.4-0.8-2-1.1c-1.1-0.6-2.2-1.4-3.3-2.1
			c-1.3-0.9-2.5-1.8-3.7-2.8c-0.2-0.2-0.5-0.4-0.7-0.6c-0.1-0.1-0.2-0.2-0.3-0.3c-0.1-0.1-0.1-0.2-0.2-0.2c-0.2-0.2-0.4-0.5-0.5-0.7
			c-0.5-0.8-0.8-1.5-1.2-2.4c-0.6-1.5-1-3.1-1.1-4.8c-0.1-1.5-0.1-3,0-4.5c0,0,0,0,0,0c0.3-2.8,1.1-5.6,2.7-8c0.9-1.3,1.9-2.5,3-3.5
			c0.6-0.5,1.1-1,1.7-1.5c1.1-0.8,2.2-1.6,3.4-2.3c1.7-1,3.5-1.6,5.4-1.9c0.8-0.1,1.6-0.3,2.5-0.4c1.3-0.1,2.6-0.2,3.9-0.2
			C154.8,21,156.4,21.2,158,21.5z M152.4,17.9c-0.9-0.1-1.9-0.2-2.8-0.2c-0.5,0-0.9,0-1.4,0c-1.4,0.1-2.7,0.2-4.1,0.4
			c-1.6,0.3-3.3,0.7-4.8,1.4c-0.7,0.3-1.4,0.7-2,1.1c-2.8,1.9-5.6,4-7.4,7c-0.9,1.4-1.6,3-2,4.7c-0.1,0.6-0.3,1.3-0.4,1.9
			c-0.3,1.9-0.3,3.8-0.2,5.7c0.1,1.6,0.4,3.2,1,4.7c0.4,0.9,0.8,1.9,1.4,2.8c0.9,1.5,2,2.9,3.3,4.2c2.1,2.2,4.6,4,7.2,5.7
			c2.1,1.4,4.2,2.7,6.5,3.8c2.3,1.1,4.6,2.1,7.1,2.9c2.5,0.8,5.1,1.6,7.7,2.3c1.1,0.3,2.3,0.6,3.4,0.8c-0.5,0.4-1.1,0.7-1.6,1.1
			c-1,0.6-2,1.2-3,1.7c-1,0.5-2.1,1.1-3.2,1.5c-0.7,0.3-1.3,0.6-2,0.8c-0.6,0.2-1.3,0.4-1.9,0.6c-2.3,0.7-4.6,1.1-7,1.4
			c-0.8,0.1-1.5,0.2-2.3,0.2c-2.5,0.2-5.1,0.4-7.6,0.3c-1.3-0.1-2.6-0.1-3.9-0.3c-1.3-0.2-2.6-0.4-3.9-0.7c-2.5-0.5-4.9-1.1-7.2-1.9
			c-2.2-0.7-4.4-1.7-6.6-2.6c-1-0.5-1.9-0.9-2.9-1.4c-1-0.6-2.1-1.1-3.1-1.7c-1.8-1-3.6-1.9-5.3-2.9c-3.8-2.2-7.5-4.5-11.3-6.8
			c-2.2-1.3-4.5-2.6-6.7-3.8c-2.3-1.2-4.6-2.2-7-3.3c-2.3-1-4.5-2-6.8-2.9c-2.2-0.9-4.4-1.7-6.7-2.4c-2.4-0.7-4.7-1.4-7.2-1.7
			c-2.5-0.4-5-0.7-7.5-0.8c-2.5-0.1-4.9-0.3-7.4-0.1c-1.2,0.1-2.3,0.1-3.4,0.3c-1.2,0.3-2.4,0.5-3.5,0.8c-2.3,0.6-4.7,1.1-6.6,2.5
			c-2,1.4-3.9,3.1-5.4,5c-0.7,0.9-1.4,1.9-1.9,3c-0.4,1-0.8,2-1.1,3.1c-0.3,1.2-0.5,2.4-0.7,3.7c-0.1,1.5-0.2,2.9,0.1,4.3
			c0.5,2.5,1.6,4.9,3,7c1.7,2.4,3.6,4.7,5.8,6.6c1.1,0.9,2.2,1.9,3.5,2.7c0.7,0.5,1.5,0.9,2.3,1.2c0.7,0.2,1.3,0.3,2,0.5
			c1.2,0.3,2.4,0.4,3.7,0.5c0.6,0.1,1.1,0.1,1.7,0.1c0.9,0,1.8-0.1,2.7-0.2c2.4-0.3,4.8-0.9,7.1-1.7c1.2-0.4,2.3-0.9,3.5-1.5
			c1-0.5,2-1.1,2.9-1.8c1-0.8,1.8-1.9,2.3-3.1c0.3-0.9,0.5-1.8,0.7-2.7c0.1-0.8,0.3-1.6,0.1-2.4c-0.1-0.7-0.3-1.5-0.5-2.2
			c-0.3-0.9-0.8-1.8-1.3-2.6c-1.2-2-2.8-3.9-4.5-5.4c-0.9-0.8-1.8-1.5-2.9-1.9c-0.4-0.2-0.9-0.4-1.4-0.4c-0.6,0-1.1,0.1-1.6,0.3
			c-0.2,0-0.4-0.1-0.6,0.1c-0.1,0.1-0.3,0.2-0.4,0.2c-0.2,0.2-0.5,0.3-0.7,0.5c-0.2,0.1,0.4,1,0.4,1c0.3,0.4,0.6,0.8,1,1.1
			c0.5,0.5,1,1,1.6,1.3c0.2,0.1,0.4,0.2,0.6,0.1c0.4-0.1,0.7-0.3,1-0.5c0,0,0.3-0.1,0.3-0.2c0-0.1,0.1-0.2,0.1-0.3
			c0.3-0.2,0.7-0.2,1-0.3c0.6,0,1.1,0.1,1.6,0.3c0.2,0.1,0.3,0.2,0.5,0.3C55.9,60.9,56,61,56,61c0.2,0.2,0.3,0.4,0.5,0.5
			c0,0.1,0.1,0.1,0.1,0.2c0.4,0.7,0.8,1.4,1.1,2.1c0.5,1.3,0.8,2.7,0.8,4.1c-0.2,1.5-0.5,3-1.2,4.3c-0.4,0.8-0.9,1.5-1.6,2.1
			c-0.3,0.2-0.6,0.5-0.9,0.7c-0.6,0.5-1.4,0.8-2.1,1.2c-0.7,0.4-1.4,0.7-2.1,1c-1.5,0.6-3,1-4.5,1.4c-1.5,0.4-3,0.6-4.6,0.8
			c-1.7,0.2-3.4,0-5.1-0.2c-0.7-0.1-1.4-0.2-2.1-0.4c-0.8-0.2-1.7-0.4-2.5-0.7c-0.3-0.2-0.7-0.4-1-0.6c-0.5-0.3-0.9-0.7-1.4-1.1
			c-0.2-0.1-0.3-0.3-0.5-0.4c-0.3-0.2-0.5-0.5-0.7-0.7c-0.3-0.3-0.5-0.6-0.7-0.9c-0.4-0.6-0.9-1.2-1.3-1.8c-0.4-0.7-0.8-1.4-1.2-2.1
			c-0.5-1.2-0.9-2.3-1.1-3.6c-0.3-1.4-0.2-2.8-0.1-4.2c0.1-0.5,0.1-1,0.2-1.5c0.2-1.2,0.5-2.3,0.9-3.4c0.4-1,0.8-2,1.4-2.9
			c1.4-2.1,3.1-3.9,5-5.6c0.9-0.7,1.9-1.5,2.9-2c1.1-0.5,2.2-0.9,3.4-1.3c1.1-0.3,2.2-0.6,3.3-0.9c1.1-0.3,2.2-0.6,3.4-0.7
			c-0.1,0-0.1,0-0.2,0c3.6-0.4,7.3-0.2,11,0.1c2.4,0.2,4.9,0.5,7.3,0.9c2.4,0.4,4.8,1.1,7.1,1.9c2.4,0.8,4.6,1.7,6.9,2.7
			c2.2,0.9,4.3,1.8,6.4,2.8c1.6,0.8,3.3,1.5,4.8,2.3c1.7,0.9,3.4,1.8,5.1,2.8c4.4,2.6,8.7,5.3,13.1,7.8c2.2,1.3,4.4,2.4,6.6,3.6
			c1,0.6,2.1,1.1,3.1,1.6c1.3,0.6,2.5,1.2,3.8,1.7c-0.1,0-0.2-0.1-0.3-0.1c3.3,1.4,6.7,2.6,10.2,3.4c1.9,0.4,3.7,0.8,5.6,1.1
			c1.7,0.3,3.3,0.3,5,0.4c2.5,0,4.9-0.1,7.4-0.3c1.3-0.1,2.7-0.3,4-0.5c1.2-0.2,2.4-0.5,3.6-0.8c1.1-0.3,2.2-0.6,3.3-1
			c0.7-0.3,1.3-0.5,2-0.8c0.6-0.3,1.2-0.5,1.8-0.8c1-0.5,2.1-1,3-1.6c1-0.6,2.1-1.2,3.1-1.9c0.8-0.6,1.7-1.2,2.4-1.8
			c2,0.3,4,0.5,6.1,0.6c1.2,0.1,2.4,0.1,3.6,0.1c1.2,0,2.4,0,3.6-0.1c2.6-0.1,5.2-0.3,7.7-0.6c2.5-0.3,4.9-0.9,7.3-1.5
			c1.2-0.3,2.3-0.7,3.5-1.1c1.1-0.4,2.3-0.9,3.3-1.4c1.2-0.6,2.3-1.2,3.5-1.8c1.1-0.6,2.1-1.3,3-2.1c2-1.5,3.9-3.2,5.7-5
			c1.6-1.6,3.2-3.3,4.4-5.3c1.2-2.1,2.1-4.4,2.7-6.8c0.6-2.2,0.6-4.5,0.3-6.7c-0.2-2.4-0.8-4.8-2.1-6.9c-1-1.6-2.4-3.1-3.8-4.3
			c-1.1-0.9-2.2-1.8-3.3-2.6c-1-0.7-2.2-1.4-3.4-1.8c-1.2-0.3-2.4-0.4-3.6-0.2c-1.1,0.2-2.1,0.4-3,0.9c-1,0.5-2,1.1-2.9,1.8
			c-1.1,0.9-2.1,1.8-2.7,3.1c-0.2,0.4-0.4,0.8-0.5,1.2c-0.1,0.4-0.2,0.9-0.3,1.3c0,0.6,0,1.1,0.1,1.7c0.2,1.2,0.5,2.5,1.2,3.5
			c1.1,1.9,2.8,3.4,4.5,4.7c1.2,0.9,2.6,1.6,4,1.9c0.8,0.2,1.5,0.3,2.3,0.2c0.6,0,1.2-0.1,1.8-0.3c1.3-0.4,2.4-1.4,3-2.7
			c0.5-1,0.5-2.1,0-3.1c-0.6-1.2-1.6-2.3-2.6-3.1c-0.8-0.7-1.7-1.2-2.7-1.5c-0.5-0.2-1.1-0.3-1.7-0.5c-0.4-0.1-0.1,0.5-0.1,0.6
			c0.2,0.4,0.5,0.7,0.7,1c0.5,0.6,1,1.1,1.6,1.6c0.2,0.2,0.5,0.3,0.8,0.5c0.2,0.1,0.5,0.1,0.7,0.2c-0.2,0.9-0.8,1.8-1.5,2.5
			c-0.6,0.5-1.2,0.9-1.9,1.1c-0.4,0.1-0.9,0.2-1.3,0.3c-1.2,0.1-2.5-0.1-3.7-0.6c-0.4-0.2-0.7-0.4-1.1-0.6c0-0.1-0.1-0.1-0.1-0.2
			c-0.4-1.2-0.6-2.4-0.6-3.7c0.2-1.2,0.7-2.3,1.4-3.3c0.8-1,1.8-1.8,2.8-2.6c0.8-0.6,1.7-1.1,2.6-1.4c0.9-0.3,1.9-0.5,2.8-0.6
			c0.7-0.1,1.4-0.1,2,0.1c0.6,0.1,1.2,0.3,1.7,0.5c0.4,0.2,0.8,0.5,1.3,0.7c0.4,0.3,0.8,0.6,1.2,0.9c0.2,0.2,0.4,0.3,0.5,0.5
			c0,0,0,0,0,0.1c0.2,0.2,0.3,0.5,0.4,0.8c0.6,1.6,1.1,3.1,1.3,4.8c0.2,1.7,0.3,3.4,0.1,5.1c-0.2,1.5-0.6,2.9-1,4.3
			c-0.5,1.5-1.1,2.9-1.8,4.3c-1.4,2.6-3.5,4.6-5.5,6.7c-1.8,1.8-3.7,3.4-5.8,4.9c-1,0.7-2,1.3-3.1,1.9c-1.1,0.6-2.3,1.2-3.5,1.7
			c-1.1,0.5-2.3,0.9-3.5,1.3c-1.1,0.4-2.3,0.7-3.5,1c-1.2,0.3-2.4,0.6-3.6,0.8c-1.2,0.2-2.5,0.4-3.7,0.6c-1.9,0.2-3.8,0.3-5.7,0.5
			c-1.9,0.1-3.7,0.1-5.6,0.1c-0.7,0-1.3,0-2-0.1c0.3-0.3,0.5-0.5,0.8-0.8c0.8-0.8,1.5-1.8,2.2-2.7c1.1-1.6,2.1-3.4,2.9-5.2
			c1-2.2,2-4.5,2.3-6.9c0.3-2.3,0.4-4.7,0.1-7c-0.1-0.7-0.2-1.3-0.3-2c-0.2-0.8-0.4-1.6-0.7-2.3c-0.2-0.4-0.4-0.8-0.6-1.2
			c-0.6-1.1-1.2-2.2-1.9-3.2c-1.6-2.3-3.5-4.4-5.5-6.4c-1.1-1.1-2.3-2-3.6-2.9c-1-0.8-2-1.5-3.1-2.2c-1.1-0.7-2.2-1.3-3.3-2
			c-1.1-0.6-2.3-1.1-3.5-1.5c-1.2-0.4-2.3-0.7-3.5-0.9C154.3,18.2,153.4,18,152.4,17.9"/>
	</g>
</g>
</svg>
